<svg width="35" height="35" viewBox="0 0 35 35" fill="none" xmlns="http://www.w3.org/2000/svg">
<path d="M27.7083 0H7.29167C3.26521 0 0 3.26521 0 7.29167V27.7083C0 31.7348 3.26521 35 7.29167 35H27.7083C31.7363 35 35 31.7348 35 27.7083V7.29167C35 3.26521 31.7363 0 27.7083 0ZM11.6667 27.7083H7.29167V11.6667H11.6667V27.7083ZM9.47917 9.8175C8.07042 9.8175 6.92708 8.66542 6.92708 7.245C6.92708 5.82458 8.07042 4.6725 9.47917 4.6725C10.8879 4.6725 12.0312 5.82458 12.0312 7.245C12.0312 8.66542 10.8894 9.8175 9.47917 9.8175ZM29.1667 27.7083H24.7917V19.5358C24.7917 14.6242 18.9583 14.996 18.9583 19.5358V27.7083H14.5833V11.6667H18.9583V14.2406C20.9942 10.4694 29.1667 10.1908 29.1667 17.8515V27.7083Z" fill="#FFFFFF"/>
</svg>
