<svg width="300" height="324" viewBox="0 0 300 324" fill="none" xmlns="http://www.w3.org/2000/svg">
<path d="M150 298.905C67.316 298.905 0 231.835 0 149.453C0 67.0704 67.316 0 150 0C232.684 0 300 67.0704 300 149.453C300 231.835 232.684 298.905 150 298.905ZM150 2.21137C68.4982 2.21137 2.21555 68.2483 2.21555 149.453C2.21555 230.657 68.4982 296.698 150 296.698C231.502 296.698 297.784 230.657 297.784 149.453C297.784 68.2483 231.502 2.21137 150 2.21137Z" fill="#593F3F"/>
<path d="M197.123 249.678C197.314 249.9 197.631 249.99 197.925 249.885C202.748 248.114 208.881 247.853 213.81 247.646L215 247.592C220.116 247.369 224.707 247.28 229.08 248.442C231.154 248.992 233.053 249.998 234.889 250.969C236.38 251.757 237.919 252.568 239.566 253.161C240.455 253.477 241.351 253.691 242.314 253.816C242.714 253.871 243.082 253.59 243.132 253.192C243.187 252.79 242.905 252.428 242.506 252.377C241.649 252.264 240.846 252.073 240.06 251.792C238.51 251.238 237.085 250.485 235.578 249.686C233.667 248.676 231.695 247.634 229.459 247.038C224.891 245.825 219.987 245.922 214.937 246.141L213.747 246.191C208.717 246.406 202.458 246.671 197.424 248.52C197.044 248.66 196.852 249.077 196.989 249.456C197.021 249.538 197.068 249.616 197.123 249.678Z" fill="#593F3F"/>
<path d="M165.507 285.009C165.714 285.247 166.067 285.329 166.368 285.189C171.19 282.923 177.379 282.154 182.347 281.534C183.047 281.449 183.728 281.363 184.378 281.277C190.821 280.442 196.493 280.009 201.719 279.951C202.463 279.939 203.199 279.943 203.942 279.947C206.831 279.974 209.787 280.376 212.648 280.762C214.159 280.969 215.725 281.179 217.267 281.335C219.553 281.569 221.444 281.644 223.205 281.566C223.863 281.538 224.563 281.468 225.288 281.355C225.687 281.293 225.961 280.922 225.898 280.524C225.836 280.126 225.464 279.853 225.064 279.92C224.391 280.021 223.745 280.091 223.142 280.115C221.451 280.189 219.631 280.119 217.42 279.888C215.897 279.736 214.347 279.526 212.844 279.323C209.943 278.929 206.937 278.523 203.954 278.496C203.202 278.488 202.455 278.484 201.703 278.496C196.423 278.555 190.692 278.991 184.19 279.838C183.54 279.924 182.867 280.006 182.166 280.091C177.093 280.723 170.779 281.511 165.746 283.874C165.382 284.046 165.225 284.475 165.397 284.838C165.428 284.904 165.464 284.959 165.507 285.009Z" fill="#593F3F"/>
<path d="M201.163 279.701C201.398 279.974 201.809 280.033 202.118 279.826C202.451 279.6 202.541 279.151 202.318 278.816C198.971 273.867 196.654 268.418 195.785 263.469C195.714 263.071 195.339 262.81 194.943 262.876C194.544 262.946 194.278 263.325 194.348 263.719C195.249 268.867 197.648 274.514 201.104 279.627C201.124 279.654 201.144 279.678 201.163 279.701Z" fill="#593F3F"/>
<path d="M213.473 291.85C213.52 291.901 213.571 291.948 213.634 291.99C217.153 294.175 220.809 295.797 224.211 296.682C225.146 296.924 226.097 297.096 227.017 297.263C227.698 297.388 228.344 297.505 228.99 297.653C229.381 297.739 229.773 297.494 229.863 297.104C229.949 296.714 229.702 296.324 229.311 296.234C228.638 296.082 227.949 295.957 227.283 295.836C226.387 295.672 225.467 295.505 224.578 295.274C221.369 294.44 217.756 292.837 214.409 290.754C214.068 290.544 213.618 290.649 213.403 290.988C213.231 291.265 213.266 291.612 213.473 291.85Z" fill="#593F3F"/>
<path d="M113.989 252.673C114.744 253.543 115.527 254.327 116.318 255.017C120.812 258.925 126.84 261.25 132.684 263.176C133.068 263.305 133.479 263.098 133.608 262.716C133.733 262.334 133.526 261.925 133.146 261.796C127.447 259.92 121.579 257.662 117.281 253.925C112.866 250.08 109.605 243.73 108.023 239.07C106.438 234.397 106.156 229.3 106.015 224.893V224.834C105.921 221.82 105.827 218.703 105.98 215.579C106 215.182 105.69 214.842 105.287 214.819C104.888 214.803 104.544 215.111 104.524 215.509C104.363 218.692 104.461 221.835 104.555 224.881L104.559 224.94C104.7 229.452 104.994 234.674 106.638 239.534C108.34 244.542 110.987 249.241 113.989 252.673Z" fill="#593F3F"/>
<path d="M176.365 224.487C177.066 225.291 177.806 226.047 178.53 226.792C179.047 227.323 179.567 227.853 180.076 228.403C180.675 229.054 181.172 229.678 181.595 230.31C181.814 230.645 182.268 230.735 182.605 230.517C182.942 230.291 183.032 229.842 182.808 229.507C182.347 228.809 181.802 228.126 181.145 227.42C180.632 226.862 180.104 226.316 179.579 225.782C177.841 223.992 176.197 222.307 175.066 220.111C172.854 215.821 171.895 210.466 172.498 205.79C173.171 200.533 175.884 197.842 180.276 194.031C180.859 193.524 181.603 192.939 182.394 192.319C183.012 191.835 183.666 191.321 184.331 190.778C184.644 190.525 184.687 190.065 184.433 189.757C184.182 189.445 183.717 189.402 183.403 189.655C182.75 190.193 182.1 190.7 181.493 191.176C180.687 191.812 179.927 192.405 179.317 192.935C174.8 196.855 171.786 199.854 171.054 205.607C170.404 210.638 171.394 216.168 173.766 220.778C174.483 222.167 175.391 223.372 176.365 224.487Z" fill="#593F3F"/>
<path d="M154.896 260.341C155.092 260.567 155.421 260.657 155.714 260.536C157.965 259.643 160.141 258.664 162.005 256.558C165.579 252.517 169.289 244.421 166.667 228.762C166.6 228.368 166.224 228.099 165.825 228.165C165.43 228.231 165.16 228.606 165.226 229.003C166.369 235.825 167.328 248.344 160.913 255.598C159.261 257.463 157.257 258.36 155.174 259.19C154.798 259.335 154.618 259.76 154.767 260.13C154.798 260.212 154.841 260.282 154.896 260.341Z" fill="#593F3F"/>
<path d="M137.421 236.207C139.073 238.099 141.002 239.83 143.288 241.382C145.034 242.568 146.976 243.325 148.859 244.058C151.063 244.916 153.141 245.727 154.93 247.162C155.137 247.326 155.38 247.533 155.638 247.771C155.932 248.04 156.394 248.02 156.668 247.724C156.938 247.428 156.922 246.964 156.621 246.698C156.339 246.441 156.069 246.207 155.846 246.028C153.885 244.456 151.599 243.567 149.391 242.705C147.504 241.967 145.719 241.273 144.111 240.181C135.06 234.042 131.827 224.76 128.813 214.152C128.703 213.766 128.3 213.539 127.913 213.649C127.525 213.758 127.302 214.164 127.412 214.55C129.756 222.802 132.238 230.279 137.421 236.207Z" fill="#593F3F"/>
<path d="M216.601 223.36C216.671 223.442 216.761 223.508 216.867 223.551L216.972 223.598C217.344 223.746 217.771 223.571 217.924 223.196C218.076 222.826 217.896 222.401 217.524 222.252L217.43 222.209C217.059 222.057 216.632 222.233 216.475 222.603C216.366 222.869 216.424 223.157 216.601 223.36Z" fill="#593F3F"/>
<path d="M225.524 227.295C225.595 227.377 225.685 227.443 225.795 227.49C231.772 229.951 238.798 231.979 245.621 228.348C249.872 226.086 254.287 221.995 257.431 217.405C260.398 213.064 262.668 207.042 263.506 201.297C263.674 200.127 263.69 198.895 263.698 197.701L263.702 197.179C263.709 196.777 263.385 196.449 262.981 196.445C262.578 196.441 262.249 196.765 262.242 197.163L262.238 197.686C262.226 198.887 262.218 200.018 262.061 201.09C261.255 206.629 259.075 212.42 256.225 216.586C253.254 220.926 248.925 224.943 244.936 227.069C238.665 230.404 232.3 228.598 226.354 226.145C225.982 225.993 225.556 226.168 225.399 226.539C225.29 226.804 225.348 227.096 225.524 227.295Z" fill="#593F3F"/>
<path d="M213.358 229.881C213.417 229.955 213.499 230.018 213.589 230.06C213.953 230.232 214.387 230.08 214.564 229.717C215.076 228.656 215.609 227.666 216.035 226.87C216.204 226.558 216.353 226.277 216.478 226.035C216.54 225.922 216.607 225.794 216.67 225.665C217.096 224.85 217.511 224.035 217.903 223.243C218.85 221.34 219.558 219.76 220.122 218.274C220.983 216.032 221.547 213.976 221.844 211.987C222.298 208.957 222.471 205.841 222.635 202.826C222.694 201.718 222.753 200.611 222.827 199.507C223.649 187.354 227.9 176.286 235.467 166.602C235.713 166.282 235.658 165.825 235.341 165.58C235.024 165.334 234.566 165.392 234.316 165.708C226.565 175.626 222.212 186.964 221.371 199.409C221.296 200.521 221.238 201.632 221.175 202.748C221.015 205.728 220.846 208.813 220.4 211.777C220.118 213.657 219.582 215.614 218.76 217.763C218.212 219.199 217.523 220.735 216.595 222.599C216.196 223.407 215.789 224.21 215.374 225.002C215.307 225.135 215.249 225.248 215.19 225.361C215.061 225.603 214.912 225.876 214.748 226.188C214.313 226.995 213.773 228.001 213.248 229.089C213.119 229.358 213.17 229.67 213.358 229.881Z" fill="#593F3F"/>
<path d="M218.889 218.497C218.901 218.512 218.916 218.524 218.932 218.539C219.218 218.816 219.68 218.812 219.961 218.528C221.437 217.022 223.269 215.813 225.121 215.111C230.777 212.982 234.069 210.174 236.876 205.092C239.15 200.989 240.352 196.028 240.446 190.345C240.528 185.346 239.162 180.412 237.839 175.638C236.97 172.495 236.069 169.242 235.615 166.052C235.556 165.654 235.188 165.381 234.789 165.435C234.39 165.49 234.112 165.86 234.171 166.258C234.637 169.538 235.549 172.838 236.433 176.024C237.725 180.7 239.064 185.533 238.985 190.322C238.895 195.763 237.756 200.501 235.599 204.394C232.946 209.195 229.967 211.734 224.604 213.754C222.557 214.526 220.541 215.86 218.92 217.51C218.654 217.783 218.642 218.216 218.889 218.497Z" fill="#593F3F"/>
<path d="M157.106 96.8869C157.243 97.0429 157.447 97.1404 157.674 97.1365C163.494 96.9922 170.9 99.7184 175.887 102.312C178.404 103.618 180.53 105.701 182.389 108.685C183.282 110.12 184.143 111.571 184.973 112.971C187.051 116.481 189.012 119.796 191.502 122.873C191.776 123.197 192.214 123.232 192.531 122.979C192.845 122.729 192.891 122.269 192.641 121.957C190.214 118.965 188.28 115.693 186.229 112.234C185.395 110.822 184.53 109.363 183.63 107.916C181.626 104.707 179.316 102.456 176.561 101.025C171.413 98.3455 163.741 95.5335 157.638 95.6817C157.235 95.6934 156.918 96.0249 156.926 96.4267C156.93 96.6022 156.996 96.7621 157.106 96.8869Z" fill="#593F3F"/>
<path d="M200.39 99.812C200.625 100.085 201.032 100.144 201.338 99.9407C201.678 99.7223 201.768 99.2699 201.549 98.9345C200.641 97.5616 199.627 96.1849 198.648 94.851C195.294 90.2801 191.822 85.5492 191.865 80.0345C191.88 77.7334 192.362 75.3426 192.824 73.0299C192.996 72.1796 193.172 71.3021 193.317 70.4519L193.356 70.2374C193.579 68.9347 193.92 66.9652 193.99 65.0034C194.006 64.6017 193.689 64.2663 193.29 64.2507C192.886 64.2351 192.546 64.551 192.53 64.9527C192.464 66.817 192.135 68.728 191.916 69.9956L191.88 70.2062C191.736 71.0369 191.563 71.9066 191.395 72.7451C190.918 75.1242 190.424 77.5891 190.405 80.0228C190.358 86.0212 193.975 90.947 197.474 95.7091C198.441 97.0273 199.439 98.3924 200.328 99.734C200.347 99.7652 200.367 99.7886 200.39 99.812Z" fill="#593F3F"/>
<path d="M120.549 323.492C120.632 323.581 120.737 323.656 120.859 323.698C121.238 323.831 121.657 323.628 121.79 323.25C125.478 312.688 130.578 302.603 136.947 293.27C138.606 290.832 140.368 288.43 142.188 286.125C146.474 280.668 151.219 275.54 156.284 270.887C157.443 269.822 158.629 268.769 159.823 267.755C163.103 264.959 166.587 262.275 169.957 259.682C171.17 258.75 172.38 257.818 173.586 256.882C176.803 254.378 179.207 252.412 181.387 250.505C181.81 250.134 182.233 249.756 182.651 249.378C183.164 248.921 183.708 248.422 184.409 247.759C187.517 244.834 190.468 241.726 193.177 238.524C197.855 233.017 201.992 227.053 205.48 220.805C209.191 214.167 212.162 207.19 214.311 200.065C215.035 197.682 215.669 195.275 216.19 192.916C216.48 191.609 216.754 190.248 217 188.863C218.77 178.934 218.985 168.828 217.642 158.836C216.793 152.499 215.313 146.278 213.239 140.354C211.767 136.153 209.99 132.078 207.958 128.236C207.684 127.706 207.39 127.175 207.101 126.649C205.026 122.901 202.576 119.11 199.393 114.714C196.641 110.919 193.686 107.168 190.832 103.54C188.574 100.674 186.237 97.7097 184.021 94.7456C181.317 91.138 179.191 88.0686 177.324 85.0967C170.27 73.8956 166.508 62.0431 166.724 51.7195C166.731 51.3178 166.414 50.9862 166.011 50.9784C165.608 50.9706 165.275 51.2905 165.268 51.6922C165.044 62.2966 168.888 74.4338 176.087 85.8689C177.974 88.8759 180.123 91.9726 182.851 95.6154C185.078 98.5911 187.419 101.567 189.682 104.437C192.527 108.057 195.475 111.797 198.211 115.568C201.358 119.913 203.777 123.657 205.821 127.351C206.106 127.865 206.392 128.38 206.666 128.911C208.667 132.694 210.412 136.703 211.861 140.833C213.904 146.664 215.36 152.787 216.198 159.031C217.521 168.875 217.306 178.828 215.564 188.614C215.321 189.975 215.051 191.32 214.765 192.604C214.248 194.928 213.63 197.299 212.914 199.647C210.796 206.671 207.864 213.555 204.208 220.103C200.763 226.266 196.681 232.151 192.066 237.588C189.392 240.751 186.48 243.816 183.411 246.702C182.835 247.24 182.26 247.775 181.673 248.301C181.258 248.672 180.847 249.046 180.428 249.409C178.267 251.3 175.883 253.251 172.685 255.735C171.484 256.671 170.274 257.603 169.068 258.531C165.682 261.137 162.183 263.832 158.875 266.651C157.666 267.677 156.464 268.742 155.298 269.818C150.17 274.526 145.374 279.713 141.037 285.228C139.201 287.56 137.42 289.99 135.741 292.455C129.302 301.893 124.143 312.092 120.412 322.774C120.322 323.028 120.385 323.301 120.549 323.492Z" fill="#593F3F"/>
<path d="M182.886 95.6583C183.059 95.8572 183.34 95.9547 183.614 95.8845C184.006 95.7831 184.245 95.3892 184.143 94.9992C183.207 91.3604 182.851 87.4564 182.499 83.6771C182.197 80.3854 181.888 76.9806 181.191 73.7708C180.084 68.6383 176.494 64.3832 173.026 60.2647C170.638 57.4254 168.164 54.4886 166.649 51.388C166.477 51.0253 166.039 50.8771 165.679 51.0526C165.315 51.2281 165.166 51.661 165.338 52.0237C166.931 55.2881 169.46 58.2912 171.91 61.2007C175.265 65.1828 178.733 69.3013 179.767 74.0828C180.444 77.2029 180.749 80.5609 181.047 83.8097C181.399 87.6475 181.767 91.61 182.73 95.3619C182.757 95.475 182.812 95.5764 182.886 95.6583Z" fill="#593F3F"/>
<path d="M164.427 109.968C166.263 112.066 168.467 113.989 171.16 115.607C174.554 117.643 178.523 118.993 182.355 120.295C183.6 120.717 184.774 121.118 185.937 121.54C187.894 122.253 189.883 122.698 191.922 123.127L192.58 123.263C194.952 123.759 197.402 124.27 199.626 125.171C202.491 126.321 204.793 127.589 206.875 129.156C207.192 129.398 207.65 129.336 207.893 129.016C208.139 128.696 208.073 128.236 207.756 127.994C205.568 126.352 203.16 125.022 200.174 123.821C197.829 122.877 195.312 122.351 192.881 121.84L192.223 121.703C190.243 121.286 188.305 120.853 186.438 120.174C185.26 119.745 184.027 119.324 182.829 118.919C179.067 117.643 175.172 116.317 171.912 114.359C164.353 109.827 160.92 102.928 158.34 96.1497C158.195 95.7753 157.777 95.5881 157.397 95.7285C157.021 95.8728 156.829 96.2901 156.974 96.6645C158.661 101.091 160.838 105.861 164.427 109.968Z" fill="#593F3F"/>
<path d="M198.246 115.619C198.422 115.818 198.7 115.916 198.978 115.845C199.37 115.748 199.605 115.354 199.503 114.964C198.951 112.788 198.92 110.697 199.405 108.193C199.757 106.384 200.243 104.656 200.716 102.987C201.033 101.852 201.366 100.674 201.648 99.5038C202.266 96.8946 202.525 94.7613 202.474 92.5811C202.329 86.2707 201.977 79.0672 199.636 73.4666C198.481 70.7053 196.634 67.8582 193.819 64.5119C193.815 64.508 193.811 64.5041 193.807 64.5002C193.549 64.2038 193.095 64.1648 192.79 64.4183C192.48 64.6757 192.437 65.1359 192.7 65.444C195.416 68.6772 197.193 71.4034 198.289 74.0243C200.532 79.3987 200.873 86.4384 201.018 92.6162C201.061 94.6638 200.818 96.6879 200.227 99.1684C199.953 100.315 199.64 101.423 199.311 102.597C198.829 104.293 198.336 106.048 197.976 107.92C197.452 110.607 197.491 112.959 198.09 115.323C198.121 115.436 198.176 115.537 198.246 115.619Z" fill="#593F3F"/>
<path d="M135.79 293.34C135.954 293.523 136.205 293.621 136.463 293.578C136.862 293.512 137.128 293.137 137.062 292.739L136.972 292.217C135.935 286.09 134.858 279.756 134.447 273.449C134.381 272.498 134.322 271.554 134.263 270.614C134.095 267.919 133.923 265.13 133.637 262.412C133.241 258.625 132.705 255.517 131.946 252.627C130.658 247.658 129.307 243.227 125.894 239.323C125.875 239.3 125.855 239.28 125.835 239.257C124.246 237.451 122.293 236.09 120.406 234.776C119.212 233.945 117.987 233.091 116.879 232.143C110.925 227.03 107.457 221.702 105.958 215.38C105.958 215.373 105.954 215.365 105.954 215.357C105.88 215.061 105.621 214.834 105.297 214.811C104.893 214.784 104.545 215.084 104.518 215.486C104.514 215.564 104.521 215.649 104.545 215.727C106.115 222.362 109.732 227.927 115.928 233.243C117.087 234.237 118.347 235.119 119.565 235.965C121.467 237.291 123.264 238.543 124.739 240.216C124.755 240.236 124.775 240.255 124.79 240.279C127.996 243.945 129.292 248.208 130.537 252.993C131.276 255.813 131.797 258.851 132.185 262.564C132.466 265.251 132.639 268.024 132.807 270.707C132.87 271.647 132.924 272.595 132.991 273.547C133.41 279.927 134.49 286.3 135.535 292.458L135.625 292.985C135.645 293.121 135.708 293.242 135.79 293.34Z" fill="#593F3F"/>
<path d="M141.062 286.156C141.223 286.339 141.473 286.437 141.732 286.394C142.714 286.226 143.708 286.055 144.714 285.875C151.373 284.697 158.25 283.484 164.525 284.861C164.944 284.955 165.382 285.076 165.829 285.22C168.776 286.191 171.18 288.09 173.728 290.099L174.299 290.551C178.938 294.19 186.187 298.597 194.412 298.89C200.859 299.124 207.599 296.792 214.442 291.963C215.221 291.409 215.996 290.828 216.747 290.239C218.301 289.023 219.883 287.564 221.589 285.785C222.858 284.452 224.177 282.962 225.739 281.101C225.993 280.793 225.954 280.337 225.645 280.08C225.335 279.818 224.877 279.861 224.619 280.173C223.077 282.006 221.777 283.477 220.532 284.783C218.877 286.515 217.346 287.923 215.847 289.097C215.115 289.674 214.356 290.239 213.596 290.781C207.02 295.419 200.589 297.657 194.466 297.439C186.638 297.158 179.67 292.915 175.204 289.409L174.636 288.96C172.1 286.959 169.481 284.892 166.291 283.839C165.797 283.679 165.308 283.543 164.838 283.441C158.286 282.002 151.259 283.243 144.464 284.444C143.462 284.619 142.467 284.799 141.493 284.959C141.094 285.025 140.823 285.399 140.89 285.797C140.917 285.934 140.976 286.055 141.062 286.156Z" fill="#593F3F"/>
<path d="M172.585 256.784C172.664 256.878 172.773 256.952 172.899 256.995C176.406 258.169 179.968 259.327 183.409 260.442C186.086 261.312 188.76 262.182 191.445 263.067C192.608 263.449 193.735 263.855 194.8 264.272C200.268 266.398 204.723 268.999 208.038 271.998C211.177 274.834 214.039 277.806 216.783 281.082C217.033 281.374 217.503 281.429 217.812 281.171C218.122 280.914 218.161 280.454 217.902 280.146C215.111 276.819 212.207 273.804 209.021 270.918C205.572 267.802 200.965 265.111 195.336 262.915C194.244 262.494 193.093 262.08 191.907 261.69C189.222 260.801 186.54 259.931 183.863 259.062C180.422 257.942 176.864 256.788 173.364 255.618C172.985 255.489 172.57 255.696 172.444 256.074C172.354 256.328 172.417 256.597 172.585 256.784Z" fill="#593F3F"/>
<path d="M228.599 297.419C228.849 297.704 229.28 297.755 229.585 297.525C229.91 297.283 229.977 296.83 229.734 296.507C228.376 294.693 227.092 292.763 225.851 290.902C224.704 289.178 223.522 287.396 222.265 285.684L221.647 284.849C221.412 284.518 220.95 284.459 220.625 284.701C220.304 284.943 220.237 285.395 220.476 285.719L221.091 286.55C222.324 288.227 223.498 289.997 224.637 291.702C225.886 293.586 227.178 295.532 228.563 297.376C228.575 297.392 228.587 297.408 228.599 297.419Z" fill="#593F3F"/>
<path d="M155.237 270.828C155.397 271.012 155.648 271.113 155.906 271.07C156.305 271.004 156.575 270.63 156.509 270.236C155.918 266.597 156.019 262.802 156.172 259.9C156.25 258.356 156.368 256.784 156.477 255.267C156.575 253.937 156.673 252.564 156.747 251.234C156.798 250.236 156.834 249.409 156.853 248.637C156.865 248.157 156.869 247.681 156.861 247.217C156.791 241.671 155.428 236.683 152.446 231.039C150.461 227.284 147.498 224.635 144.116 221.808C141.853 219.912 139.16 217.779 135.848 216.418C134.635 215.919 133.429 215.513 132.263 215.119C130.916 214.659 129.64 214.23 128.407 213.684C128.043 213.524 127.609 213.688 127.444 214.054C127.284 214.421 127.448 214.85 127.816 215.014C129.108 215.583 130.411 216.024 131.793 216.496C132.94 216.882 134.122 217.284 135.289 217.759C138.107 218.918 140.397 220.595 143.176 222.919C146.558 225.747 149.291 228.188 151.158 231.718C154.023 237.147 155.334 241.932 155.401 247.244C155.413 247.693 155.405 248.145 155.397 248.602C155.377 249.362 155.342 250.173 155.291 251.156C155.221 252.474 155.119 253.839 155.021 255.162C154.912 256.69 154.794 258.266 154.716 259.826C154.559 262.798 154.458 266.694 155.068 270.47C155.092 270.606 155.15 270.731 155.237 270.828Z" fill="#593F3F"/>
<path d="M155.474 251.671C155.56 251.772 155.677 251.85 155.814 251.889C156.202 252.006 156.609 251.784 156.723 251.398C156.993 250.493 157.298 249.608 157.631 248.765C157.674 248.648 157.721 248.535 157.772 248.418C158.688 246.234 159.987 244.144 161.244 242.12C161.96 240.973 162.7 239.784 163.361 238.586C165.221 235.24 166.074 231.878 166.665 229.027C166.743 228.633 166.489 228.251 166.098 228.169C165.702 228.091 165.315 228.344 165.236 228.734C164.665 231.48 163.847 234.709 162.085 237.884C161.439 239.05 160.711 240.22 160.007 241.355C158.719 243.43 157.384 245.571 156.421 247.861C156.37 247.989 156.319 248.114 156.268 248.235C155.924 249.117 155.607 250.045 155.325 250.989C155.251 251.234 155.313 251.492 155.474 251.671Z" fill="#593F3F"/>
<path d="M181.61 249.319C181.723 249.452 181.888 249.542 182.072 249.561C182.471 249.608 182.835 249.323 182.886 248.925C182.948 248.407 183.003 247.88 183.046 247.35C183.485 242.412 183.258 237.322 183.038 232.404C183.003 231.554 182.964 230.712 182.929 229.877C182.894 229.007 182.858 228.149 182.839 227.307C182.776 225.006 182.596 222.674 182.42 220.415C182.177 217.299 181.931 214.074 181.993 210.923C182.036 208.926 182.205 206.882 182.365 204.905C182.471 203.606 182.58 202.264 182.655 200.938C182.835 197.705 183.422 194.46 184.569 190.412C184.679 190.026 184.452 189.628 184.064 189.519C183.676 189.409 183.273 189.632 183.164 190.022C181.989 194.175 181.383 197.518 181.203 200.856C181.124 202.163 181.015 203.497 180.909 204.792C180.748 206.788 180.576 208.852 180.533 210.891C180.467 214.117 180.721 217.377 180.968 220.529C181.14 222.767 181.32 225.08 181.383 227.346C181.402 228.196 181.437 229.062 181.473 229.943C181.504 230.774 181.543 231.621 181.578 232.471C181.798 237.346 182.021 242.381 181.594 247.229C181.551 247.744 181.496 248.255 181.437 248.754C181.41 248.968 181.477 249.171 181.61 249.319Z" fill="#593F3F"/>
<path d="M183.359 247.709C183.492 247.865 183.692 247.958 183.915 247.958C188.001 247.915 192.44 248.551 197.482 249.904C199.878 250.544 202.395 251.343 205.178 252.35C207.515 253.196 209.758 254.397 211.926 255.556C213.852 256.581 215.837 257.642 217.915 258.477C223.368 260.665 229.294 260.142 236.567 256.827C238.912 255.758 240.94 254.744 242.764 253.73C243.116 253.535 243.245 253.091 243.046 252.744C242.85 252.389 242.408 252.268 242.055 252.463C240.263 253.457 238.27 254.456 235.961 255.509C229.079 258.644 223.521 259.159 218.463 257.131C216.459 256.328 214.506 255.283 212.619 254.272C210.403 253.091 208.11 251.866 205.675 250.985C202.853 249.963 200.296 249.148 197.862 248.5C192.691 247.112 188.123 246.46 183.899 246.503C183.5 246.511 183.175 246.839 183.179 247.241C183.179 247.42 183.245 247.584 183.359 247.709Z" fill="#593F3F"/>
<path d="M192.068 238.535C192.311 238.812 192.729 238.867 193.035 238.652C194.28 237.791 195.348 237.139 196.397 236.613C198.002 235.801 199.654 235.259 201.4 234.686C202.433 234.347 203.506 233.996 204.555 233.586C205.334 233.278 206.101 232.97 206.86 232.658C209.268 231.679 211.542 230.755 214.051 230.119C216.138 229.585 218.216 229.187 220.224 228.805C222.205 228.422 224.256 228.032 226.256 227.521C229.098 226.796 231.435 225.938 233.611 224.826C240.066 221.511 247.688 215.747 253.501 209.788C256.444 206.773 259.086 203.38 261.635 200.104C262.089 199.523 262.535 198.945 262.985 198.372C263.169 198.142 263.365 197.881 263.568 197.592C263.803 197.264 263.725 196.812 263.396 196.578C263.067 196.348 262.613 196.426 262.378 196.753C262.191 197.019 262.011 197.26 261.838 197.479C261.388 198.056 260.938 198.633 260.484 199.214C257.959 202.459 255.344 205.817 252.459 208.774C246.744 214.628 239.268 220.287 232.942 223.536C230.867 224.596 228.628 225.415 225.892 226.114C223.939 226.613 221.911 227.003 219.95 227.373C217.923 227.763 215.824 228.165 213.726 228.699C211.084 229.374 208.767 230.318 206.312 231.312C205.557 231.621 204.798 231.929 204.026 232.233C203.013 232.627 201.96 232.97 200.946 233.305C199.223 233.871 197.442 234.456 195.74 235.314C194.628 235.876 193.505 236.558 192.201 237.463C191.872 237.693 191.79 238.145 192.021 238.473C192.033 238.496 192.052 238.516 192.068 238.535Z" fill="#593F3F"/>
<path d="M204.288 220.934C204.401 221.059 204.558 221.149 204.734 221.176C205.133 221.231 205.505 220.954 205.564 220.56C205.662 219.854 205.775 219.152 205.889 218.45C205.955 218.048 206.018 217.65 206.08 217.249C206.343 215.564 206.597 213.746 206.668 211.901C206.812 207.877 206.394 203.579 205.419 199.117L205.348 198.789C204.781 196.18 204.194 193.485 203.176 190.989C202.593 189.565 201.763 188.298 200.964 187.069C200.796 186.812 200.628 186.555 200.463 186.297C200.248 185.958 199.794 185.86 199.453 186.075C199.113 186.293 199.015 186.742 199.23 187.081C199.399 187.342 199.571 187.604 199.739 187.865C200.538 189.086 201.293 190.24 201.822 191.539C202.792 193.918 203.368 196.551 203.92 199.097L203.994 199.429C204.945 203.77 205.352 207.947 205.208 211.847C205.141 213.621 204.894 215.384 204.636 217.03C204.573 217.428 204.511 217.826 204.448 218.224C204.335 218.933 204.221 219.639 204.119 220.353C204.084 220.571 204.155 220.778 204.288 220.934Z" fill="#593F3F"/>
<path d="M197.319 209.698C198.121 210.614 199.104 211.301 200.168 212.042C200.415 212.217 200.673 212.397 200.935 212.584C202.928 214 203.848 215.49 204.693 217.428C204.85 217.798 205.28 217.966 205.648 217.806C206.02 217.646 206.189 217.217 206.032 216.851C205.116 214.741 204.044 213.009 201.789 211.402C201.523 211.211 201.26 211.028 201.006 210.852C199.182 209.577 197.867 208.66 197.201 206.515C195.945 202.479 197.236 198.7 198.602 194.698C199.475 192.136 200.384 189.484 200.575 186.738C200.607 186.34 200.305 185.993 199.902 185.962C199.499 185.934 199.151 186.239 199.119 186.636C198.939 189.195 198.066 191.753 197.221 194.23C195.839 198.278 194.41 202.459 195.804 206.948C196.164 208.103 196.684 208.972 197.319 209.698Z" fill="#593F3F"/>
<path d="M213.063 200.334C213.211 200.501 213.434 200.603 213.677 200.579C214.08 200.544 214.374 200.189 214.339 199.788C213.732 193.15 210.827 186.36 208.314 182.214C207.915 181.555 207.484 180.884 207.038 180.229C205.343 177.725 203.476 175.482 201.879 173.614C195.855 166.59 193.549 158.181 191.103 149.277L190.805 148.181C190.696 147.795 190.292 147.569 189.905 147.674C189.517 147.78 189.29 148.181 189.396 148.567L189.694 149.663C192.183 158.727 194.536 167.288 200.767 174.558C202.341 176.395 204.173 178.598 205.829 181.044C206.263 181.679 206.678 182.327 207.062 182.963C209.493 186.972 212.299 193.532 212.886 199.924C212.902 200.08 212.965 200.221 213.063 200.334Z" fill="#593F3F"/>
<path d="M205.882 181.114C206.038 181.293 206.277 181.391 206.531 181.356C206.927 181.301 207.209 180.938 207.154 180.541C206.95 179.023 206.927 177.561 207.087 176.192L207.095 176.145C207.514 172.604 207.874 169.542 207.518 165.939C207.13 162.038 205.936 160.108 203.228 156.988C203.22 156.984 203.216 156.976 203.208 156.968C201.384 154.882 198.844 153.368 196.385 151.902C194.33 150.677 192.209 149.41 190.608 147.854C190.318 147.577 189.856 147.581 189.574 147.865C189.292 148.154 189.3 148.622 189.586 148.895C191.312 150.572 193.508 151.883 195.634 153.15C197.994 154.554 200.433 156.009 202.108 157.924C202.112 157.932 202.116 157.935 202.124 157.939C204.586 160.771 205.702 162.397 206.066 166.083C206.406 169.534 206.054 172.518 205.643 175.977L205.639 176.024C205.463 177.514 205.486 179.098 205.709 180.736C205.729 180.88 205.792 181.013 205.882 181.114Z" fill="#593F3F"/>
<path d="M215.731 189.214C215.754 189.242 215.778 189.265 215.801 189.289C216.107 189.55 216.569 189.519 216.831 189.214C221.281 184.117 222.863 176.219 223.99 169.215C224.421 166.551 224.832 163.84 225.227 161.219L225.642 158.493C225.971 156.258 226.276 154.308 226.562 152.53C227.134 148.973 227.568 145.33 227.983 141.808C228.222 139.827 228.464 137.78 228.731 135.775C229.572 129.445 232.066 123.938 234.771 118.392C234.947 118.029 234.794 117.597 234.43 117.421C234.07 117.246 233.631 117.398 233.455 117.76C230.7 123.416 228.155 129.039 227.286 135.584C227.016 137.6 226.773 139.656 226.539 141.641C226.12 145.147 225.685 148.774 225.122 152.3C224.832 154.086 224.53 156.04 224.198 158.279L223.783 161.001C223.387 163.622 222.98 166.329 222.554 168.988C221.45 175.79 219.927 183.454 215.731 188.263C215.488 188.54 215.496 188.945 215.731 189.214Z" fill="#593F3F"/>
<path d="M224.369 158.864C224.388 158.883 224.404 158.903 224.427 158.918C224.721 159.191 225.183 159.176 225.457 158.879C226.846 157.386 229.23 156.145 231.532 154.952C233.904 153.723 236.139 152.561 237.114 151.161C240.018 146.988 239.392 141.734 238.84 137.097C238.793 136.727 238.75 136.364 238.711 136.001C238.253 132.015 237.263 128.084 236.304 124.281C236.1 123.474 235.897 122.667 235.701 121.859C235.419 120.705 235.141 119.457 234.832 117.928C234.75 117.538 234.366 117.284 233.971 117.362C233.575 117.44 233.321 117.827 233.399 118.221C233.712 119.765 233.994 121.033 234.284 122.206C234.483 123.018 234.687 123.829 234.891 124.636C235.838 128.396 236.816 132.277 237.263 136.169C237.302 136.532 237.345 136.902 237.392 137.273C237.912 141.652 238.503 146.613 235.916 150.334C235.149 151.438 233.066 152.518 230.859 153.665C228.447 154.917 225.95 156.212 224.384 157.893C224.13 158.166 224.13 158.587 224.369 158.864Z" fill="#593F3F"/>
<path d="M170.866 137.004C174.518 141.181 180.28 144.546 188.297 147.206C188.536 147.284 188.771 147.358 189.005 147.436L189.46 147.581C193.221 148.766 196.956 149.679 200.244 150.482L200.4 150.521C201.626 150.822 203.563 151.368 205.83 152.284C209.133 153.614 213.643 155.927 216.34 159.382C216.59 159.706 217.048 159.753 217.365 159.507C217.682 159.262 217.741 158.805 217.495 158.489C214.598 154.78 209.85 152.335 206.378 150.935C204.522 150.186 202.573 149.558 200.749 149.113L200.592 149.07C197.324 148.275 193.617 147.366 189.91 146.196L189.452 146.052C189.221 145.978 188.99 145.904 188.759 145.826C177.916 142.23 171.61 137.589 168.909 131.216C168.748 130.845 168.326 130.674 167.954 130.83C167.582 130.99 167.41 131.415 167.562 131.785C168.353 133.649 169.453 135.385 170.866 137.004Z" fill="#593F3F"/>
<path d="M167.688 131.976C167.782 132.085 167.903 132.163 168.052 132.202C171.379 133.064 174.851 133.497 179.036 133.883C183.772 134.312 188.36 135.833 192.306 138.283C194.948 139.921 196.878 142.319 198.925 144.862C199.602 145.697 200.299 146.567 201.019 147.393C202.526 149.109 204.1 150.677 205.595 152.128C205.881 152.409 206.343 152.405 206.624 152.116C206.906 151.828 206.894 151.364 206.613 151.091C205.141 149.656 203.579 148.107 202.123 146.442C201.418 145.634 200.729 144.776 200.064 143.95C198.028 141.426 195.93 138.821 193.081 137.046C188.943 134.48 184.132 132.885 179.173 132.436C175.059 132.058 171.653 131.633 168.42 130.795C168.032 130.693 167.633 130.927 167.531 131.317C167.469 131.559 167.535 131.801 167.688 131.976Z" fill="#593F3F"/>
<path d="M211.998 141.071C212.131 141.227 212.331 141.321 212.55 141.321C212.953 141.317 213.278 140.989 213.274 140.588C213.243 134.063 214.586 127.214 216.042 120.783L216.304 119.644C216.433 119.071 216.562 118.505 216.695 117.944C219.69 105.011 224.599 95.0967 232.149 86.7466C232.42 86.4502 232.396 85.99 232.099 85.7209C231.797 85.4556 231.339 85.479 231.065 85.7755C223.342 94.3167 218.328 104.434 215.274 117.62C215.141 118.182 215.012 118.747 214.879 119.32L214.621 120.463C213.145 126.98 211.783 133.926 211.818 140.596C211.818 140.779 211.885 140.947 211.998 141.071Z" fill="#593F3F"/>
<path d="M214.784 121.103C214.921 121.259 215.128 121.36 215.355 121.352C221.665 121.142 227.063 116.036 229.412 111.38C231.737 106.758 231.588 101.75 231.076 97.0351C230.61 92.6825 230.993 89.3557 232.273 86.5632C232.442 86.2005 232.281 85.7676 231.913 85.5999C231.549 85.4361 231.119 85.5921 230.95 85.9626C229.553 89.0008 229.13 92.5655 229.627 97.1911C230.109 101.688 230.261 106.442 228.109 110.728C225.028 116.836 219.317 119.765 215.308 119.898C214.905 119.913 214.592 120.249 214.604 120.65C214.612 120.822 214.678 120.982 214.784 121.103Z" fill="#593F3F"/>
<path d="M106.762 122.167C104.855 122.32 102.949 122.351 101.043 122.253C98.193 122.117 95.3864 121.703 92.6189 121.009C89.8514 120.319 87.1818 119.363 84.6022 118.143C82.0265 116.922 79.5918 115.463 77.3019 113.763C75.0158 112.066 72.9138 110.159 71.0036 108.045C67.3319 104.001 64.5487 99.418 62.662 94.2972C61.699 91.6763 61.014 88.9891 60.5991 86.2317C60.1842 83.4743 60.0472 80.7014 60.1959 77.9167C60.3447 75.1359 60.7713 72.3941 61.4759 69.6952C62.1805 66.9963 63.1513 64.3988 64.3843 61.895C66.8113 56.9808 70.0759 52.7024 74.1821 49.0636C78.3118 45.3896 82.9738 42.6166 88.1761 40.7446C90.4738 39.9217 92.8225 39.2937 95.2259 38.8569C97.6254 38.424 100.048 38.1939 102.487 38.1627C104.926 38.1315 107.353 38.2992 109.768 38.6736C112.179 39.0441 114.544 39.6136 116.861 40.378C117.068 40.4443 117.221 40.5769 117.327 40.7641C117.432 40.9552 117.46 41.1541 117.409 41.3686C117.358 41.5792 117.241 41.743 117.06 41.8639C116.88 41.9848 116.681 42.0277 116.469 41.9965C111.956 41.3062 106.93 41.7664 101.939 43.3265C96.7447 44.9489 91.9691 47.6595 88.1291 51.1618C84.8097 54.1844 82.2731 57.7023 80.586 61.6141C78.7345 65.916 77.9477 70.6273 78.2531 75.6156C78.5506 80.4244 79.811 84.9681 82.0344 89.2465C84.2617 93.564 87.2484 97.273 90.9944 100.374C95.5352 104.153 100.62 106.575 106.104 107.577C111.052 108.482 116.325 108.182 121.351 106.7C126.721 105.112 131.462 102.425 135.576 98.6341C139.623 94.8978 142.543 90.4088 144.027 85.6623C144.074 85.5102 144.117 85.3581 144.16 85.206C144.219 84.9954 144.344 84.8316 144.532 84.7185C144.716 84.6054 144.919 84.5742 145.131 84.6171C145.346 84.66 145.518 84.7692 145.643 84.9486C145.773 85.1241 145.824 85.323 145.796 85.5375C144.465 96.0366 139.169 105.584 130.882 112.425C127.461 115.245 123.691 117.491 119.577 119.153C115.459 120.814 111.189 121.82 106.762 122.167ZM99.5905 39.7891C95.0615 40.1518 90.7126 41.2204 86.5359 42.9989C82.3593 44.7773 78.574 47.172 75.1802 50.1829C71.2189 53.693 68.0678 57.8154 65.7309 62.558C64.5409 64.9683 63.6093 67.4721 62.9282 70.0735C62.2471 72.6749 61.84 75.3153 61.6951 77.9986C61.5542 80.6818 61.6834 83.3495 62.0826 86.0094C62.4819 88.6654 63.1435 91.2551 64.0712 93.7785C65.8914 98.7199 68.5727 103.139 72.1153 107.039C73.9629 109.083 75.9905 110.923 78.1983 112.561C80.406 114.203 82.7585 115.611 85.2442 116.789C87.7337 117.967 90.3133 118.891 92.983 119.558C95.6565 120.225 98.3653 120.627 101.117 120.76C111.651 121.282 121.883 117.912 129.923 111.271C136.155 106.13 140.633 99.3985 142.907 91.8869C141.279 94.7184 139.149 97.3705 136.589 99.7378C132.303 103.685 127.363 106.485 121.773 108.135C116.52 109.683 111.009 109.999 105.83 109.051C100.088 108.002 94.7718 105.467 90.0315 101.524C86.1328 98.2948 83.0208 94.4298 80.6996 89.9329C78.3783 85.4673 77.0631 80.7287 76.7538 75.7053C76.4368 70.483 77.2627 65.5416 79.2082 61.0252C80.9775 56.9145 83.6393 53.225 87.1153 50.0581C91.1197 46.4076 96.091 43.5878 101.485 41.899C104.319 41.0059 107.216 40.456 110.179 40.2571C106.668 39.6643 103.137 39.5083 99.5905 39.7891Z" fill="#593F3F"/>
</svg>
