<svg width="115" height="124" viewBox="0 0 115 124" fill="none" xmlns="http://www.w3.org/2000/svg">
<path d="M57.5 114.488C25.8045 114.488 0 88.7985 0 57.244C0 25.6896 25.8045 0 57.5 0C89.1955 0 115 25.6896 115 57.244C115 88.7985 89.1955 114.488 57.5 114.488ZM57.5 0.847009C26.2576 0.847009 0.849295 26.1407 0.849295 57.244C0.849295 88.3473 26.2576 113.643 57.5 113.643C88.7424 113.643 114.151 88.3473 114.151 57.244C114.151 26.1407 88.7424 0.847009 57.5 0.847009Z" fill="white"/>
<path d="M75.5633 95.6328C75.6368 95.718 75.7584 95.7523 75.8709 95.712C77.7196 95.0338 80.0709 94.9337 81.96 94.8545L82.4162 94.8336C84.3774 94.7485 86.1375 94.7141 87.8136 95.1593C88.6089 95.3699 89.3366 95.7553 90.0403 96.1273C90.612 96.429 91.2018 96.7397 91.8335 96.9668C92.1741 97.0878 92.5177 97.17 92.8868 97.2178C93.0399 97.2387 93.1809 97.1311 93.2004 96.9788C93.2215 96.8249 93.1134 96.686 92.9604 96.6665C92.6318 96.6232 92.3241 96.55 92.0225 96.4425C91.4283 96.2303 90.8821 95.942 90.3044 95.6358C89.5722 95.2489 88.8159 94.85 87.9591 94.6215C86.208 94.1569 84.3279 94.1942 82.3922 94.2779L81.936 94.2973C80.0079 94.3795 77.6085 94.4811 75.6789 95.1891C75.5333 95.2429 75.4598 95.4028 75.5123 95.5477C75.5243 95.579 75.5423 95.6089 75.5633 95.6328Z" fill="white"/>
<path d="M63.4451 109.166C63.5246 109.257 63.6597 109.288 63.7752 109.234C65.6238 108.366 67.9962 108.072 69.9003 107.835C70.1689 107.802 70.43 107.769 70.6791 107.736C73.149 107.416 75.3232 107.25 77.3264 107.228C77.6115 107.224 77.8936 107.225 78.1787 107.227C79.2861 107.237 80.419 107.391 81.5159 107.539C82.0951 107.618 82.6953 107.699 83.2865 107.758C84.1628 107.848 84.8875 107.876 85.5628 107.846C85.8149 107.836 86.0835 107.809 86.361 107.766C86.5141 107.742 86.6191 107.6 86.5951 107.448C86.5711 107.295 86.4286 107.191 86.2755 107.216C86.0174 107.255 85.7698 107.282 85.5388 107.291C84.8905 107.319 84.1928 107.292 83.345 107.204C82.7613 107.146 82.1671 107.065 81.5909 106.987C80.479 106.837 79.3266 106.681 78.1832 106.671C77.8951 106.668 77.6085 106.666 77.3204 106.671C75.2962 106.693 73.0994 106.861 70.6071 107.185C70.358 107.218 70.0999 107.249 69.8313 107.282C67.8866 107.524 65.4663 107.826 63.5366 108.731C63.3971 108.797 63.337 108.961 63.4031 109.1C63.4151 109.125 63.4286 109.146 63.4451 109.166Z" fill="white"/>
<path d="M77.1133 107.132C77.2034 107.237 77.3609 107.259 77.4795 107.18C77.607 107.094 77.6415 106.922 77.556 106.793C76.273 104.898 75.3847 102.811 75.0516 100.915C75.0246 100.763 74.8805 100.663 74.729 100.688C74.5759 100.715 74.4739 100.86 74.5009 101.011C74.846 102.982 75.7659 105.146 77.0908 107.104C77.0983 107.114 77.1058 107.123 77.1133 107.132Z" fill="white"/>
<path d="M81.831 111.786C81.849 111.805 81.8685 111.823 81.8925 111.839C83.2415 112.676 84.643 113.297 85.9469 113.637C86.3055 113.729 86.6702 113.795 87.0228 113.859C87.2839 113.907 87.5315 113.952 87.779 114.009C87.9291 114.041 88.0792 113.947 88.1137 113.798C88.1467 113.649 88.0521 113.499 87.9021 113.465C87.644 113.407 87.3799 113.359 87.1248 113.312C86.7812 113.25 86.4286 113.185 86.088 113.097C84.8575 112.778 83.4726 112.164 82.1896 111.366C82.0591 111.285 81.8865 111.326 81.804 111.456C81.7379 111.562 81.7515 111.695 81.831 111.786Z" fill="white"/>
<path d="M43.6952 96.7801C43.9848 97.1132 44.2849 97.4135 44.588 97.6779C46.3106 99.1747 48.6214 100.065 50.8617 100.803C51.0087 100.852 51.1663 100.773 51.2158 100.627C51.2638 100.48 51.1843 100.323 51.0388 100.274C48.854 99.5556 46.6047 98.6907 44.9571 97.2596C43.2645 95.7867 42.0146 93.3547 41.4084 91.5696C40.8007 89.7799 40.6927 87.8275 40.6386 86.1395V86.117C40.6026 84.9623 40.5666 83.7687 40.6251 82.5722C40.6326 82.4198 40.5141 82.2898 40.3595 82.2809C40.2065 82.2749 40.0744 82.3929 40.0669 82.5453C40.0054 83.7642 40.0429 84.9683 40.0789 86.135L40.0804 86.1574C40.1345 87.8858 40.247 89.886 40.8772 91.7473C41.5299 93.6654 42.5443 95.4655 43.6952 96.7801Z" fill="white"/>
<path d="M67.606 85.9841C67.8746 86.2918 68.1582 86.5816 68.4358 86.8669C68.6339 87.0701 68.8334 87.2733 69.0285 87.4839C69.2581 87.7334 69.4486 87.9724 69.6107 88.2144C69.6947 88.3428 69.8688 88.3772 69.9978 88.2935C70.1269 88.2069 70.1614 88.0351 70.0759 87.9066C69.8988 87.6392 69.6902 87.3778 69.4381 87.1074C69.2416 86.8938 69.039 86.6847 68.8379 86.48C68.1717 85.7944 67.5415 85.149 67.1078 84.308C66.26 82.6648 65.8924 80.6137 66.1235 78.8226C66.3816 76.8089 67.4214 75.7781 69.105 74.3187C69.3286 74.1245 69.6137 73.9004 69.9168 73.6629C70.1539 73.4776 70.4045 73.2804 70.6596 73.0728C70.7796 72.9757 70.7961 72.7994 70.6986 72.6814C70.6025 72.5619 70.424 72.5455 70.3039 72.6426C70.0534 72.8487 69.8043 73.0429 69.5717 73.2252C69.2626 73.4687 68.9715 73.6957 68.7374 73.8989C67.0058 75.4002 65.8504 76.549 65.5698 78.7524C65.3207 80.6794 65.7003 82.7977 66.6097 84.5634C66.8843 85.0952 67.2324 85.5568 67.606 85.9841Z" fill="white"/>
<path d="M59.3771 99.7169C59.4521 99.8036 59.5782 99.8379 59.6907 99.7916C60.5535 99.4495 61.3878 99.0746 62.1021 98.2679C63.472 96.7203 64.8945 93.6191 63.8892 87.6213C63.8637 87.4704 63.7196 87.3673 63.5666 87.3927C63.415 87.4181 63.3115 87.5615 63.337 87.7139C63.7751 90.3266 64.1428 95.1219 61.6834 97.9004C61.0502 98.6145 60.2819 98.9581 59.4837 99.2762C59.3396 99.3315 59.2706 99.4943 59.3276 99.6363C59.3396 99.6676 59.3561 99.6945 59.3771 99.7169Z" fill="white"/>
<path d="M52.6788 90.4731C53.312 91.1976 54.0518 91.8609 54.9281 92.4554C55.5973 92.9095 56.3416 93.1993 57.0633 93.4802C57.9081 93.8088 58.7049 94.1196 59.3907 94.6693C59.4702 94.732 59.5632 94.8112 59.6623 94.9023C59.7748 95.0054 59.9519 94.9979 60.0569 94.8844C60.1604 94.7709 60.1544 94.5931 60.0389 94.4915C59.9308 94.3929 59.8273 94.3033 59.7418 94.2346C58.99 93.6326 58.1137 93.292 57.2674 92.9618C56.5442 92.6795 55.8599 92.4136 55.2432 91.9953C51.774 89.644 50.5346 86.0887 49.3792 82.0254C49.3372 81.8775 49.1826 81.7909 49.0341 81.8327C48.8855 81.8745 48.8 82.0299 48.842 82.1778C49.7408 85.3387 50.6921 88.2024 52.6788 90.4731Z" fill="white"/>
<path d="M83.0299 85.5524C83.0569 85.5837 83.0914 85.6091 83.1319 85.6256L83.1724 85.6435C83.315 85.7002 83.4786 85.633 83.5371 85.4896C83.5956 85.3477 83.5266 85.1849 83.384 85.1281L83.348 85.1117C83.2055 85.0534 83.0419 85.1206 82.9819 85.2625C82.9399 85.3641 82.9624 85.4747 83.0299 85.5524Z" fill="white"/>
<path d="M86.451 87.0597C86.478 87.091 86.5126 87.1164 86.5546 87.1343C88.8459 88.077 91.5393 88.8538 94.1547 87.463C95.7843 86.5966 97.4769 85.0295 98.6818 83.2713C99.8192 81.6086 100.689 79.3021 101.011 77.1017C101.075 76.6535 101.081 76.1815 101.084 75.7244L101.086 75.5242C101.089 75.3703 100.964 75.2449 100.81 75.2434C100.655 75.2419 100.529 75.3659 100.526 75.5182L100.524 75.7184C100.52 76.1785 100.517 76.6117 100.457 77.0225C100.148 79.1438 99.312 81.3621 98.2196 82.9576C97.0807 84.6202 95.4212 86.1589 93.8921 86.973C91.4883 88.2502 89.0484 87.5586 86.7691 86.619C86.6266 86.5607 86.463 86.6279 86.403 86.7698C86.361 86.8714 86.3835 86.9835 86.451 87.0597Z" fill="white"/>
<path d="M81.7874 88.0501C81.8099 88.0784 81.8414 88.1023 81.876 88.1188C82.0155 88.1845 82.1821 88.1262 82.2496 87.9873C82.4462 87.581 82.6502 87.2015 82.8138 86.8968C82.8783 86.7773 82.9353 86.6697 82.9833 86.5771C83.0074 86.5338 83.0329 86.4845 83.0569 86.4352C83.2204 86.123 83.3795 85.8108 83.5295 85.5075C83.8927 84.7785 84.1643 84.1735 84.3803 83.6044C84.7104 82.7454 84.9265 81.9582 85.0406 81.1963C85.2146 80.0356 85.2806 78.842 85.3437 77.6873C85.3662 77.263 85.3887 76.8388 85.4172 76.416C85.7323 71.7612 87.3619 67.5217 90.2624 63.8125C90.3569 63.69 90.3359 63.5152 90.2144 63.4211C90.0928 63.327 89.9173 63.3494 89.8212 63.4704C86.8502 67.2692 85.1816 71.6118 84.859 76.3787C84.8305 76.8044 84.808 77.2302 84.784 77.6574C84.7225 78.7987 84.6579 79.9803 84.4869 81.1156C84.3788 81.8357 84.1733 82.5856 83.8581 83.4087C83.6481 83.9584 83.384 84.547 83.0284 85.261C82.8753 85.5703 82.7193 85.878 82.5602 86.1813C82.5347 86.232 82.5122 86.2754 82.4897 86.3187C82.4402 86.4113 82.3831 86.5159 82.3201 86.6354C82.1536 86.9446 81.9465 87.33 81.7454 87.7468C81.6959 87.8499 81.7154 87.9694 81.7874 88.0501Z" fill="white"/>
<path d="M83.9077 83.6895C83.9122 83.6955 83.9182 83.7 83.9242 83.7059C84.0337 83.812 84.2108 83.8105 84.3188 83.7015C84.8845 83.1248 85.5868 82.6617 86.2965 82.3929C88.4648 81.5772 89.7267 80.5017 90.8026 78.5552C91.6744 76.9837 92.135 75.0835 92.1711 72.907C92.2026 70.9919 91.6789 69.1021 91.1717 67.2737C90.8386 66.0696 90.4935 64.8238 90.3194 63.6018C90.2969 63.4494 90.1559 63.3449 90.0028 63.3658C89.8498 63.3867 89.7432 63.5286 89.7657 63.681C89.9443 64.9373 90.2939 66.2011 90.633 67.4216C91.1282 69.2127 91.6414 71.0636 91.6114 72.898C91.5769 74.9819 91.1402 76.7969 90.3134 78.2878C89.2961 80.1267 88.1542 81.0992 86.0984 81.873C85.3137 82.1688 84.5409 82.6797 83.9197 83.3116C83.8177 83.4161 83.8132 83.582 83.9077 83.6895Z" fill="white"/>
<path d="M60.2234 37.11C60.276 37.1698 60.354 37.2071 60.441 37.2057C62.6723 37.1504 65.5113 38.1946 67.4229 39.188C68.3878 39.6884 69.2026 40.4861 69.9153 41.6289C70.2574 42.1787 70.5875 42.7344 70.9057 43.2707C71.7024 44.6151 72.4542 45.8849 73.4085 47.0635C73.5136 47.1875 73.6816 47.201 73.8032 47.1039C73.9232 47.0082 73.9412 46.832 73.8452 46.7125C72.9149 45.5667 72.1736 44.3134 71.3873 42.9883C71.0677 42.4475 70.7361 41.8889 70.391 41.3346C69.6227 40.1052 68.7374 39.2433 67.681 38.695C65.7078 37.6687 62.7668 36.5917 60.4275 36.6485C60.273 36.6529 60.1514 36.7799 60.1544 36.9338C60.1559 37.001 60.1814 37.0622 60.2234 37.11Z" fill="white"/>
<path d="M76.8163 38.2304C76.9063 38.335 77.0624 38.3574 77.1794 38.2797C77.31 38.1961 77.3445 38.0228 77.2604 37.8943C76.9123 37.3685 76.5237 36.8411 76.1486 36.3302C74.8626 34.5795 73.5316 32.7674 73.5481 30.6551C73.5542 29.7738 73.7387 28.858 73.9158 27.9722C73.9818 27.6465 74.0493 27.3104 74.1048 26.9848L74.1198 26.9026C74.2054 26.4037 74.3359 25.6493 74.3629 24.8979C74.3689 24.744 74.2474 24.6155 74.0943 24.6096C73.9398 24.6036 73.8092 24.7246 73.8032 24.8784C73.7777 25.5925 73.6517 26.3245 73.5677 26.81L73.5542 26.8907C73.4986 27.2088 73.4326 27.542 73.3681 27.8631C73.185 28.7744 72.996 29.7185 72.9885 30.6507C72.9704 32.9482 74.3569 34.8349 75.6984 36.6589C76.069 37.1638 76.4517 37.6867 76.7923 38.2005C76.7998 38.2125 76.8073 38.2214 76.8163 38.2304Z" fill="white"/>
<path d="M46.2101 123.905C46.2416 123.94 46.2821 123.968 46.3287 123.984C46.4742 124.035 46.6348 123.958 46.6858 123.813C48.0993 119.767 50.0544 115.904 52.4958 112.329C53.132 111.396 53.8073 110.476 54.505 109.593C56.1481 107.503 57.9667 105.538 59.9084 103.756C60.3525 103.348 60.8072 102.945 61.2648 102.557C62.5223 101.486 63.8577 100.458 65.1497 99.4645C65.6149 99.1075 66.0785 98.7504 66.5407 98.3919C67.7741 97.4329 68.6954 96.68 69.5312 95.9495C69.6933 95.8076 69.8553 95.6627 70.0159 95.5178C70.2125 95.343 70.421 95.1518 70.6896 94.8978C71.881 93.7774 73.0124 92.5868 74.0508 91.3604C75.8439 89.2511 77.43 86.967 78.7669 84.5739C80.1894 82.0313 81.3283 79.3589 82.1521 76.6296C82.4297 75.7169 82.6728 74.7952 82.8724 73.8914C82.9834 73.391 83.0884 72.8696 83.183 72.3393C83.8612 68.536 83.9437 64.6654 83.4291 60.8382C83.1034 58.4107 82.5362 56.028 81.741 53.7589C81.1768 52.15 80.4955 50.5889 79.7168 49.1175C79.6117 48.9144 79.4992 48.7112 79.3881 48.5095C78.5929 47.0739 77.6535 45.6219 76.4336 43.9384C75.3788 42.4849 74.2459 41.0478 73.152 39.6585C72.2862 38.5605 71.3904 37.4252 70.5411 36.2899C69.5042 34.9081 68.6894 33.7324 67.9737 32.5941C65.2697 28.3038 63.8277 23.764 63.9103 19.8098C63.9133 19.656 63.7917 19.529 63.6372 19.526C63.4826 19.523 63.3551 19.6455 63.3521 19.7994C63.2665 23.8611 64.7401 28.51 67.4995 32.8899C68.2228 34.0417 69.0466 35.2278 70.0924 36.623C70.9462 37.7628 71.8435 38.9026 72.7108 40.0021C73.8017 41.3884 74.9316 42.821 75.9805 44.2655C77.1869 45.9297 78.1142 47.3637 78.8975 48.7784C79.007 48.9756 79.1166 49.1728 79.2216 49.3759C79.9884 50.825 80.6576 52.3606 81.2128 53.9426C81.9961 56.1759 82.5543 58.5213 82.8754 60.9129C83.3825 64.6834 83.3 68.4956 82.6323 72.2437C82.5392 72.765 82.4357 73.2804 82.3262 73.7719C82.1281 74.6622 81.891 75.5705 81.6164 76.4698C80.8046 79.1602 79.6808 81.7968 78.2793 84.305C76.9588 86.6652 75.3938 88.9194 73.6246 91.0019C72.5998 92.2134 71.4834 93.3875 70.307 94.493C70.0864 94.6991 69.8658 94.9038 69.6408 95.1055C69.4817 95.2474 69.3242 95.3908 69.1636 95.5297C68.3353 96.2542 67.4215 97.0011 66.1956 97.9527C65.7349 98.3112 65.2712 98.6683 64.8091 99.0238C63.5111 100.022 62.1697 101.054 60.9017 102.134C60.4381 102.527 59.9774 102.935 59.5302 103.347C57.5646 105.15 55.7264 107.137 54.0638 109.249C53.3601 110.142 52.6774 111.073 52.0336 112.017C49.5653 115.632 47.5876 119.539 46.1576 123.63C46.1231 123.727 46.1471 123.832 46.2101 123.905Z" fill="white"/>
<path d="M70.1059 36.6395C70.172 36.7157 70.28 36.753 70.385 36.7261C70.5351 36.6873 70.6266 36.5364 70.5876 36.387C70.229 34.9933 70.0924 33.4979 69.9574 32.0504C69.8418 30.7896 69.7233 29.4855 69.4562 28.256C69.0316 26.2901 67.6556 24.6604 66.3261 23.0829C65.4108 21.9954 64.4625 20.8705 63.8818 19.6829C63.8157 19.544 63.6477 19.4872 63.5096 19.5544C63.3701 19.6216 63.3131 19.7875 63.3791 19.9264C63.9898 21.1767 64.9591 22.327 65.8985 23.4414C67.1844 24.9666 68.5139 26.5441 68.91 28.3756C69.1696 29.5706 69.2866 30.8568 69.4007 32.1012C69.5357 33.5711 69.6768 35.0889 70.0459 36.526C70.0564 36.5693 70.0774 36.6081 70.1059 36.6395Z" fill="white"/>
<path d="M63.0294 42.1204C63.7332 42.9241 64.5779 43.6605 65.6103 44.2805C66.9113 45.0603 68.4328 45.5771 69.9018 46.0761C70.379 46.2374 70.8291 46.3913 71.2748 46.5526C72.025 46.826 72.7873 46.9963 73.5691 47.1606L73.8212 47.2129C74.7305 47.4026 75.6698 47.5983 76.5221 47.9434C77.6205 48.3841 78.5028 48.8696 79.3011 49.4701C79.4226 49.5627 79.5982 49.5388 79.6912 49.4163C79.7857 49.2938 79.7602 49.1175 79.6387 49.0249C78.7999 48.396 77.8771 47.8866 76.7322 47.4265C75.8334 47.065 74.8685 46.8633 73.9367 46.6676L73.6846 46.6153C72.9253 46.4555 72.1826 46.2897 71.4668 46.0298C71.0152 45.8654 70.5425 45.7041 70.0834 45.5487C68.6414 45.0603 67.1483 44.5523 65.8984 43.8024C63.0009 42.0666 61.6849 39.424 60.6961 36.8277C60.6406 36.6843 60.48 36.6126 60.3345 36.6664C60.1904 36.7216 60.1169 36.8815 60.1724 37.0249C60.8191 38.7204 61.6534 40.5474 63.0294 42.1204Z" fill="white"/>
<path d="M75.9954 44.285C76.0629 44.3612 76.1695 44.3985 76.276 44.3716C76.4261 44.3343 76.5161 44.1834 76.4771 44.034C76.2655 43.2004 76.2535 42.3997 76.4396 41.4407C76.5746 40.7476 76.7607 40.0858 76.9422 39.4464C77.0638 39.0117 77.1913 38.5606 77.2994 38.1124C77.5364 37.113 77.6355 36.2959 77.616 35.4608C77.5605 33.0438 77.4254 30.2847 76.5281 28.1395C76.0854 27.0819 75.3772 25.9914 74.2983 24.7097C74.2968 24.7082 74.2953 24.7067 74.2938 24.7052C74.1948 24.5917 74.0207 24.5767 73.9037 24.6738C73.7851 24.7724 73.7686 24.9487 73.8692 25.0667C74.9105 26.3051 75.5918 27.3493 76.0119 28.3531C76.8717 30.4117 77.0023 33.108 77.0578 35.4743C77.0743 36.2586 76.9813 37.0339 76.7547 37.9839C76.6496 38.4231 76.5296 38.8474 76.4036 39.297C76.219 39.9469 76.0299 40.6191 75.8919 41.3361C75.6908 42.3654 75.7058 43.2662 75.9354 44.1714C75.9474 44.2148 75.9684 44.2536 75.9954 44.285Z" fill="white"/>
<path d="M52.0531 112.356C52.1161 112.427 52.2122 112.464 52.3112 112.447C52.4642 112.422 52.5663 112.279 52.5408 112.126L52.5063 111.926C52.1086 109.579 51.696 107.153 51.5384 104.738C51.5129 104.373 51.4904 104.012 51.4679 103.652C51.4034 102.619 51.3374 101.551 51.2278 100.51C51.0763 99.0596 50.8707 97.8691 50.5796 96.7621C50.0859 94.859 49.5682 93.162 48.2598 91.6666C48.2523 91.6577 48.2448 91.6502 48.2373 91.6412C47.6281 90.9496 46.8793 90.4282 46.1561 89.9248C45.6984 89.6066 45.2287 89.2795 44.8041 88.9165C42.5218 86.958 41.1923 84.9174 40.6176 82.4959C40.6176 82.4929 40.6161 82.4899 40.6161 82.487C40.5876 82.3734 40.4886 82.2868 40.364 82.2778C40.2095 82.2674 40.0759 82.3824 40.0654 82.5363C40.0639 82.5661 40.0669 82.599 40.0759 82.6289C40.6776 85.1699 42.0641 87.3016 44.4395 89.3377C44.8836 89.7186 45.3668 90.0563 45.8334 90.3804C46.5627 90.8883 47.2514 91.3679 47.8171 92.0087C47.8231 92.0162 47.8306 92.0236 47.8366 92.0326C49.0656 93.4368 49.5622 95.0696 50.0394 96.9025C50.323 97.9826 50.5226 99.1463 50.6711 100.568C50.7792 101.598 50.8452 102.66 50.9097 103.688C50.9337 104.048 50.9547 104.411 50.9802 104.775C51.1408 107.219 51.5549 109.66 51.9556 112.019L51.9901 112.22C51.9976 112.273 52.0216 112.319 52.0531 112.356Z" fill="white"/>
<path d="M54.0743 109.605C54.1359 109.675 54.2319 109.712 54.3309 109.696C54.7076 109.632 55.0887 109.566 55.4743 109.497C58.0267 109.046 60.6631 108.581 63.0685 109.109C63.229 109.145 63.3971 109.191 63.5681 109.246C64.698 109.618 65.6194 110.346 66.5962 111.115L66.8153 111.288C68.5934 112.682 71.3724 114.37 74.525 114.482C76.9963 114.572 79.5802 113.678 82.2031 111.829C82.5017 111.617 82.7988 111.394 83.0869 111.169C83.6826 110.703 84.2889 110.144 84.9431 109.463C85.4292 108.952 85.9349 108.381 86.5336 107.669C86.6312 107.551 86.6162 107.376 86.4976 107.277C86.3791 107.177 86.2035 107.194 86.1045 107.313C85.5133 108.015 85.0151 108.578 84.5379 109.079C83.9032 109.742 83.3165 110.281 82.7418 110.731C82.4612 110.952 82.1701 111.169 81.879 111.376C79.3581 113.153 76.8928 114.01 74.546 113.926C71.5449 113.819 68.874 112.194 67.1619 110.851L66.9443 110.679C65.972 109.912 64.9681 109.121 63.7452 108.717C63.5561 108.656 63.3686 108.604 63.1885 108.565C60.6766 108.014 57.9832 108.489 55.3783 108.949C54.9942 109.016 54.613 109.085 54.2394 109.146C54.0863 109.171 53.9828 109.315 54.0083 109.467C54.0188 109.52 54.0413 109.566 54.0743 109.605Z" fill="white"/>
<path d="M66.158 98.3546C66.188 98.3904 66.2301 98.4188 66.2781 98.4352C67.6225 98.8849 68.988 99.3286 70.307 99.7558C71.3333 100.089 72.3582 100.422 73.3876 100.761C73.8332 100.908 74.2654 101.063 74.6735 101.223C76.7697 102.037 78.4773 103.033 79.7483 104.182C80.9517 105.268 82.0486 106.406 83.1004 107.661C83.1965 107.773 83.3765 107.794 83.4951 107.696C83.6136 107.597 83.6286 107.421 83.5296 107.303C82.4597 106.028 81.3463 104.874 80.1249 103.768C78.8029 102.575 77.0368 101.544 74.8791 100.703C74.4604 100.542 74.0193 100.383 73.5646 100.234C72.5353 99.8932 71.5074 99.5601 70.481 99.227C69.1621 98.7982 67.7981 98.3561 66.4566 97.9079C66.3111 97.8586 66.152 97.9378 66.104 98.0827C66.0695 98.1798 66.0935 98.2829 66.158 98.3546Z" fill="white"/>
<path d="M87.6289 113.919C87.725 114.028 87.89 114.047 88.0071 113.959C88.1316 113.867 88.1571 113.693 88.0641 113.569C87.5434 112.875 87.0512 112.135 86.5756 111.423C86.1359 110.762 85.6828 110.08 85.2011 109.424L84.964 109.104C84.874 108.977 84.6969 108.955 84.5724 109.047C84.4493 109.14 84.4238 109.313 84.5154 109.437L84.7509 109.756C85.2236 110.398 85.6738 111.076 86.1104 111.729C86.5891 112.45 87.0843 113.196 87.6154 113.902C87.6199 113.908 87.6244 113.914 87.6289 113.919Z" fill="white"/>
<path d="M59.5077 103.734C59.5692 103.804 59.6653 103.843 59.7643 103.827C59.9173 103.801 60.0209 103.658 59.9954 103.507C59.7688 102.113 59.8078 100.66 59.8663 99.5482C59.8963 98.9566 59.9413 98.3546 59.9834 97.7735C60.0209 97.2641 60.0584 96.7382 60.0869 96.2288C60.1064 95.8464 60.1199 95.5297 60.1274 95.2339C60.1319 95.0502 60.1334 94.868 60.1304 94.6902C60.1034 92.5659 59.5812 90.6553 58.4378 88.4937C57.6771 87.0552 56.5412 86.0408 55.2447 84.9578C54.3774 84.2318 53.3451 83.4147 52.0756 82.8933C51.6105 82.7021 51.1483 82.5467 50.7011 82.3959C50.185 82.2196 49.6958 82.0553 49.2231 81.8461C49.0836 81.7849 48.917 81.8476 48.854 81.988C48.7925 82.1285 48.8555 82.2928 48.9965 82.3555C49.4917 82.5736 49.9914 82.7424 50.5211 82.9232C50.9607 83.0711 51.4139 83.225 51.861 83.4072C52.9414 83.8509 53.8192 84.4932 54.8846 85.3836C56.181 86.4666 57.2284 87.4017 57.9442 88.7537C59.0425 90.8331 59.5452 92.666 59.5707 94.7006C59.5752 94.8724 59.5722 95.0457 59.5692 95.2205C59.5617 95.5118 59.5482 95.8225 59.5287 96.199C59.5017 96.7039 59.4627 97.2267 59.4252 97.7331C59.3832 98.3187 59.3381 98.9222 59.3081 99.5198C59.2481 100.658 59.2091 102.15 59.4432 103.596C59.4522 103.649 59.4747 103.697 59.5077 103.734Z" fill="white"/>
<path d="M59.5978 96.3961C59.6308 96.435 59.6758 96.4649 59.7283 96.4798C59.8769 96.5246 60.0329 96.4395 60.0764 96.2916C60.18 95.945 60.297 95.6059 60.4245 95.2832C60.441 95.2384 60.4591 95.1951 60.4786 95.1503C60.8297 94.3137 61.3279 93.513 61.8095 92.7377C62.0841 92.2985 62.3677 91.8429 62.6213 91.3843C63.3341 90.1026 63.6612 88.8149 63.8877 87.7229C63.9178 87.572 63.8202 87.4256 63.6702 87.3943C63.5186 87.3644 63.3701 87.4615 63.3401 87.6109C63.121 88.6625 62.8074 89.8994 62.1321 91.1154C61.8846 91.5621 61.6055 92.0102 61.3354 92.4449C60.8417 93.2397 60.33 94.0598 59.9609 94.9367C59.9414 94.986 59.9219 95.0338 59.9024 95.0801C59.7703 95.4177 59.6488 95.7732 59.5407 96.1347C59.5122 96.2288 59.5362 96.3274 59.5978 96.3961Z" fill="white"/>
<path d="M69.6167 95.4954C69.6602 95.5462 69.7233 95.5805 69.7938 95.588C69.9468 95.6059 70.0864 95.4969 70.1059 95.3445C70.1299 95.1458 70.1509 94.9441 70.1674 94.741C70.3355 92.8498 70.2484 90.9003 70.1644 89.0166C70.1509 88.6909 70.1359 88.3682 70.1224 88.0486C70.1089 87.7154 70.0954 87.3868 70.0879 87.0641C70.0639 86.1828 69.9948 85.2894 69.9273 84.4245C69.8343 83.2309 69.7398 81.9955 69.7638 80.7885C69.7803 80.0236 69.8448 79.2409 69.9063 78.4835C69.9468 77.986 69.9888 77.4722 70.0174 76.9643C70.0864 75.7259 70.3115 74.483 70.7511 72.9324C70.7931 72.7845 70.7061 72.6321 70.5575 72.5903C70.409 72.5485 70.2544 72.6336 70.2124 72.783C69.7623 74.3739 69.5297 75.6542 69.4607 76.9329C69.4306 77.4333 69.3886 77.9442 69.3481 78.4402C69.2866 79.205 69.2206 79.9953 69.2041 80.7765C69.1786 82.0119 69.2761 83.2608 69.3706 84.4678C69.4367 85.3253 69.5057 86.2111 69.5297 87.0791C69.5372 87.4047 69.5507 87.7364 69.5642 88.074C69.5762 88.3921 69.5912 88.7163 69.6047 89.042C69.6887 90.9093 69.7743 92.8378 69.6107 94.6947C69.5942 94.8919 69.5732 95.0875 69.5507 95.2788C69.5402 95.3609 69.5657 95.4386 69.6167 95.4954Z" fill="white"/>
<path d="M70.2874 94.8784C70.3384 94.9382 70.415 94.974 70.5005 94.974C72.067 94.9576 73.7686 95.2011 75.7013 95.7194C76.6196 95.9644 77.5845 96.2707 78.6513 96.6561C79.5471 96.9802 80.4069 97.4403 81.2382 97.884C81.9765 98.2769 82.7373 98.6832 83.534 99.0029C85.6243 99.8409 87.896 99.6408 90.684 98.371C91.5828 97.9617 92.3601 97.5733 93.0593 97.1849C93.1944 97.1102 93.2439 96.9399 93.1674 96.807C93.0924 96.671 92.9228 96.6247 92.7877 96.6994C92.1005 97.0803 91.3367 97.4628 90.4514 97.8661C87.8135 99.0671 85.6828 99.2643 83.7441 98.4875C82.9758 98.1798 82.2271 97.7794 81.5038 97.3925C80.6545 96.9399 79.7752 96.4708 78.8419 96.1332C77.76 95.7418 76.7802 95.4296 75.8469 95.1817C73.8647 94.6498 72.1136 94.4004 70.4945 94.4168C70.3414 94.4198 70.2169 94.5453 70.2184 94.6991C70.2184 94.7679 70.2439 94.8306 70.2874 94.8784Z" fill="white"/>
<path d="M73.6261 91.3649C73.7191 91.4709 73.8797 91.4919 73.9967 91.4097C74.4739 91.0796 74.8835 90.8301 75.2857 90.6284C75.9009 90.3177 76.5341 90.1101 77.2033 89.8905C77.5995 89.7605 78.0106 89.6261 78.4127 89.4692C78.7113 89.3512 79.0054 89.2332 79.2965 89.1137C80.2194 88.7387 81.0912 88.3847 82.053 88.1412C82.8528 87.9365 83.6496 87.7841 84.4193 87.6377C85.1786 87.4914 85.9649 87.342 86.7316 87.1463C87.821 86.8684 88.7168 86.5398 89.5511 86.114C92.0255 84.8443 94.947 82.6364 97.1753 80.3538C98.3037 79.199 99.3165 77.8994 100.293 76.6446C100.467 76.422 100.638 76.2009 100.811 75.9813C100.882 75.8932 100.957 75.7931 101.035 75.6825C101.125 75.557 101.095 75.3838 100.969 75.2941C100.843 75.206 100.668 75.2359 100.578 75.3614C100.506 75.4629 100.437 75.5556 100.371 75.6392C100.199 75.8603 100.026 76.0814 99.8522 76.304C98.8844 77.5468 97.882 78.833 96.7761 79.9654C94.5854 82.2076 91.7194 84.3752 89.2945 85.6196C88.4992 86.0259 87.6409 86.3396 86.5921 86.607C85.8433 86.7982 85.0661 86.9476 84.3143 87.0895C83.537 87.2389 82.7327 87.3928 81.9285 87.5974C80.9156 87.8559 80.0273 88.2174 79.0865 88.5983C78.7969 88.7163 78.5058 88.8343 78.2102 88.9508C77.8215 89.1017 77.4179 89.2332 77.0293 89.3616C76.369 89.5783 75.6863 89.8023 75.0336 90.131C74.6074 90.3461 74.1768 90.6075 73.6771 90.9541C73.551 91.0422 73.5195 91.2155 73.6081 91.341C73.6126 91.3499 73.6201 91.3574 73.6261 91.3649Z" fill="white"/>
<path d="M78.3107 84.6232C78.3542 84.671 78.4142 84.7053 78.4818 84.7158C78.6348 84.7367 78.7774 84.6306 78.7999 84.4798C78.8374 84.2094 78.8809 83.9405 78.9244 83.6716C78.9499 83.5177 78.9739 83.3654 78.9979 83.2115C79.0985 82.5662 79.196 81.87 79.223 81.1634C79.2785 79.6218 79.118 77.9756 78.7444 76.2666L78.7173 76.1411C78.4998 75.1418 78.2747 74.1095 77.8846 73.1535C77.661 72.6082 77.3429 72.1227 77.0368 71.6521C76.9722 71.5536 76.9077 71.455 76.8447 71.3564C76.7622 71.2264 76.5881 71.1891 76.4576 71.2712C76.327 71.3549 76.2895 71.5267 76.372 71.6566C76.4366 71.7567 76.5026 71.8568 76.5671 71.9569C76.8732 72.4245 77.1628 72.8666 77.3654 73.3641C77.7375 74.2753 77.9581 75.2837 78.1697 76.2592L78.1982 76.3861C78.5628 78.0488 78.7188 79.6487 78.6633 81.1425C78.6378 81.8222 78.5433 82.4974 78.4442 83.1278C78.4202 83.2802 78.3962 83.4326 78.3722 83.585C78.3287 83.8568 78.2852 84.1272 78.2462 84.4006C78.2327 84.4843 78.2597 84.5634 78.3107 84.6232Z" fill="white"/>
<path d="M75.6384 80.3194C75.946 80.6705 76.3226 80.9334 76.7307 81.2172C76.8253 81.2844 76.9243 81.3531 77.0248 81.4249C77.7886 81.9671 78.1412 82.5378 78.4653 83.2802C78.5254 83.4221 78.6904 83.4864 78.8315 83.4251C78.974 83.3639 79.0385 83.1995 78.9785 83.0591C78.6274 82.2509 78.2163 81.5877 77.352 80.9722C77.2499 80.899 77.1494 80.8288 77.0519 80.7616C76.3526 80.2731 75.8484 79.922 75.5933 79.1004C75.1117 77.5543 75.6069 76.1068 76.1305 74.5741C76.4651 73.5926 76.8133 72.5768 76.8868 71.5252C76.8988 71.3728 76.7833 71.2398 76.6287 71.2279C76.4742 71.2174 76.3406 71.3339 76.3286 71.4863C76.2596 72.4663 75.925 73.4462 75.6008 74.3948C75.0712 75.9454 74.5235 77.5468 75.0577 79.2663C75.1957 79.7084 75.3953 80.0416 75.6384 80.3194Z" fill="white"/>
<path d="M81.6734 76.7327C81.7304 76.797 81.8159 76.8358 81.909 76.8268C82.0635 76.8134 82.1761 76.6775 82.1626 76.5236C81.93 73.9811 80.8166 71.3803 79.8533 69.7923C79.7002 69.5399 79.5352 69.2829 79.3641 69.032C78.7144 68.0729 77.9986 67.214 77.3864 66.4984C75.0771 63.808 74.1933 60.5873 73.2555 57.1768L73.1414 56.7571C73.0994 56.6092 72.9449 56.5225 72.7963 56.5629C72.6478 56.6032 72.5607 56.7571 72.6012 56.905L72.7153 57.3247C73.6696 60.7964 74.5714 64.0754 76.9603 66.8599C77.5635 67.5635 78.2657 68.4075 78.9004 69.3442C79.067 69.5877 79.226 69.8357 79.3731 70.0792C80.3049 71.6148 81.3808 74.1275 81.6059 76.5759C81.6119 76.6356 81.6359 76.6894 81.6734 76.7327Z" fill="white"/>
<path d="M78.9215 69.3711C78.9815 69.4398 79.073 69.4771 79.1706 69.4637C79.3221 69.4428 79.4302 69.3038 79.4092 69.1515C79.3311 68.5704 79.3221 68.0102 79.3836 67.4858L79.3866 67.4679C79.5472 66.1115 79.6852 64.9388 79.5487 63.5585C79.4001 62.0647 78.9425 61.3252 77.9041 60.1302C77.9011 60.1287 77.8996 60.1257 77.8966 60.1227C77.1974 59.3235 76.2235 58.7439 75.2812 58.1822C74.4934 57.7131 73.6802 57.2276 73.0664 56.6316C72.9554 56.5255 72.7783 56.527 72.6703 56.6361C72.5623 56.7466 72.5653 56.9259 72.6748 57.0304C73.3365 57.6728 74.1783 58.1747 74.9931 58.6602C75.8979 59.198 76.8328 59.7552 77.475 60.4887C77.4765 60.4917 77.478 60.4932 77.481 60.4946C78.4248 61.5792 78.8525 62.2021 78.992 63.6138C79.1226 64.9358 78.9875 66.0786 78.8299 67.4037L78.8284 67.4216C78.7609 67.9922 78.7699 68.5987 78.8555 69.2262C78.863 69.2814 78.887 69.3322 78.9215 69.3711Z" fill="white"/>
<path d="M82.6968 72.4738C82.7058 72.4842 82.7148 72.4932 82.7238 72.5021C82.8408 72.6022 83.0179 72.5903 83.1184 72.4738C84.8245 70.5213 85.4307 67.4963 85.8629 64.8133C86.0279 63.793 86.1855 62.7548 86.337 61.751L86.4961 60.7068C86.6221 59.8508 86.7392 59.1039 86.8487 58.4227C87.0678 57.0603 87.2343 55.665 87.3934 54.3161C87.4849 53.5572 87.578 52.773 87.68 52.0051C88.0026 49.5806 88.9584 47.4713 89.9953 45.3471C90.0628 45.2082 90.0043 45.0423 89.8648 44.9751C89.7267 44.9079 89.5587 44.9662 89.4911 45.1051C88.4348 47.2711 87.4594 49.4253 87.1263 51.9319C87.0228 52.7043 86.9297 53.4915 86.8397 54.2519C86.6792 55.5948 86.5126 56.9841 86.2965 58.3345C86.1855 59.0187 86.0699 59.7671 85.9424 60.6246L85.7833 61.6673C85.6318 62.6712 85.4757 63.7079 85.3122 64.7267C84.889 67.332 84.3053 70.2674 82.6968 72.1093C82.6037 72.2153 82.6067 72.3707 82.6968 72.4738Z" fill="white"/>
<path d="M86.0069 60.8487C86.0144 60.8561 86.0204 60.8636 86.0295 60.8696C86.142 60.9742 86.3191 60.9682 86.4241 60.8546C86.9568 60.2825 87.8706 59.8075 88.7529 59.3503C89.6622 58.8798 90.519 58.4346 90.8926 57.8983C92.006 56.2999 91.7659 54.2877 91.5544 52.5115C91.5364 52.3696 91.5199 52.2307 91.5049 52.0918C91.3293 50.5651 90.9497 49.0593 90.582 47.6028C90.504 47.2935 90.426 46.9843 90.351 46.6751C90.2429 46.2329 90.1364 45.7549 90.0178 45.1693C89.9863 45.0199 89.8393 44.9228 89.6877 44.9527C89.5362 44.9826 89.4386 45.1305 89.4686 45.2813C89.5887 45.8729 89.6967 46.3584 89.8078 46.808C89.8843 47.1188 89.9623 47.4295 90.0403 47.7387C90.4035 49.1788 90.7786 50.6651 90.9497 52.156C90.9647 52.2949 90.9812 52.4368 90.9992 52.5788C91.1987 54.2563 91.4253 56.1565 90.4335 57.5816C90.1394 58.0044 89.3411 58.4182 88.4948 58.8574C87.5705 59.3369 86.6132 59.8329 86.0129 60.4767C85.9154 60.5813 85.9154 60.7426 86.0069 60.8487Z" fill="white"/>
<path d="M65.4993 52.4757C66.8993 54.0756 69.108 55.3648 72.1811 56.3836C72.2726 56.4134 72.3627 56.4418 72.4527 56.4717L72.6268 56.527C74.0688 56.9811 75.5003 57.3307 76.7607 57.6384L76.8207 57.6533C77.2904 57.7684 78.0331 57.9775 78.9019 58.3286C80.1684 58.838 81.897 59.7238 82.9308 61.0473C83.0269 61.1713 83.2024 61.1893 83.324 61.0951C83.4455 61.001 83.468 60.8263 83.3735 60.7053C82.2631 59.2846 80.443 58.348 79.112 57.8117C78.4008 57.5249 77.6535 57.2844 76.9543 57.1141L76.8942 57.0976C75.6413 56.7929 74.2203 56.4448 72.7993 55.9967L72.6238 55.9414C72.5352 55.913 72.4467 55.8846 72.3582 55.8547C68.2017 54.4774 65.7844 52.6998 64.749 50.2588C64.6875 50.1169 64.5254 50.0512 64.3829 50.1109C64.2403 50.1722 64.1743 50.335 64.2328 50.4769C64.5359 51.191 64.9576 51.8557 65.4993 52.4757Z" fill="white"/>
<path d="M64.2809 50.5501C64.3169 50.592 64.3634 50.6218 64.4205 50.6368C65.6959 50.9669 67.0269 51.1327 68.6309 51.2806C70.4466 51.4449 72.2052 52.0275 73.7177 52.9657C74.7306 53.5931 75.4703 54.5118 76.2551 55.4858C76.5147 55.8055 76.7818 56.1386 77.0579 56.4553C77.6356 57.1126 78.2388 57.7131 78.812 58.2688C78.9215 58.3764 79.0986 58.3749 79.2066 58.2643C79.3146 58.1538 79.3101 57.976 79.2021 57.8715C78.6379 57.3217 78.0392 56.7287 77.481 56.0908C77.2109 55.7816 76.9468 55.4529 76.6917 55.1362C75.9115 54.1697 75.1072 53.1718 74.0148 52.4921C72.4288 51.5092 70.5846 50.8982 68.6834 50.7264C67.1064 50.5815 65.8009 50.4187 64.5615 50.0975C64.413 50.0587 64.2599 50.1483 64.2209 50.2977C64.1969 50.3903 64.2224 50.4829 64.2809 50.5501Z" fill="white"/>
<path d="M81.2667 54.0338C81.3177 54.0935 81.3943 54.1294 81.4783 54.1294C81.6329 54.1279 81.7574 54.0024 81.7559 53.8485C81.7439 51.3493 82.2586 48.7262 82.8168 46.2628L82.9173 45.8266C82.9668 45.607 83.0163 45.3904 83.0674 45.1753C84.2153 40.2217 86.0969 36.4244 88.9914 33.2261C89.095 33.1125 89.0859 32.9362 88.9719 32.8332C88.8564 32.7316 88.6808 32.7406 88.5758 32.8541C85.6152 36.1256 83.6931 40.0006 82.5227 45.0513C82.4716 45.2664 82.4221 45.483 82.3711 45.7026L82.2721 46.1403C81.7064 48.6365 81.1842 51.2971 81.1977 53.8515C81.1977 53.9217 81.2232 53.986 81.2667 54.0338Z" fill="white"/>
<path d="M82.3336 46.3853C82.3861 46.445 82.4657 46.4839 82.5527 46.4809C84.9715 46.4002 87.0407 44.4448 87.9411 42.6611C88.8324 40.8909 88.7754 38.9729 88.5788 37.1668C88.4002 35.4997 88.5473 34.2254 89.0379 33.1558C89.1025 33.0169 89.0409 32.8511 88.8999 32.7869C88.7603 32.7241 88.5953 32.7839 88.5308 32.9258C87.9951 34.0895 87.833 35.4549 88.0236 37.2265C88.2082 38.9489 88.2667 40.7699 87.4414 42.4117C86.2605 44.751 84.0712 45.8729 82.5347 45.9237C82.3801 45.9297 82.2601 46.0581 82.2646 46.212C82.2676 46.2777 82.2931 46.339 82.3336 46.3853Z" fill="white"/>
<path d="M40.9253 46.7931C40.1945 46.8514 39.4637 46.8633 38.733 46.826C37.6406 46.7737 36.5647 46.6153 35.5039 46.3494C34.443 46.085 33.4196 45.719 32.4308 45.2515C31.4435 44.7839 30.5101 44.2252 29.6323 43.5739C28.756 42.9241 27.9502 42.1936 27.218 41.3839C25.8105 39.8348 24.7436 38.0795 24.0204 36.1181C23.6512 35.1143 23.3887 34.085 23.2296 33.0289C23.0705 31.9727 23.018 30.9106 23.075 29.844C23.1321 28.7789 23.2956 27.7287 23.5657 26.695C23.8358 25.6612 24.2079 24.6663 24.6806 23.7073C25.6109 21.825 26.8624 20.1863 28.4364 18.7925C30.0195 17.3853 31.8066 16.3232 33.8008 15.6062C34.6816 15.291 35.5819 15.0505 36.5032 14.8832C37.423 14.7173 38.3519 14.6292 39.2867 14.6172C40.2215 14.6053 41.1518 14.6695 42.0777 14.8129C43.002 14.9549 43.9083 15.173 44.7966 15.4658C44.8761 15.4911 44.9347 15.5419 44.9752 15.6136C45.0157 15.6868 45.0262 15.763 45.0067 15.8452C44.9872 15.9259 44.9422 15.9886 44.8731 16.0349C44.8041 16.0812 44.7276 16.0976 44.6465 16.0857C42.9164 15.8213 40.9898 15.9976 39.0766 16.5951C37.0854 17.2165 35.2548 18.2548 33.7828 19.5962C32.5103 20.754 31.538 22.1014 30.8913 23.5997C30.1815 25.2474 29.8799 27.052 29.997 28.9626C30.111 30.8045 30.5942 32.5448 31.4465 34.1836C32.3003 35.8373 33.4452 37.2579 34.8812 38.4455C36.6218 39.8931 38.5709 40.8207 40.6732 41.2047C42.5698 41.5512 44.591 41.4362 46.5177 40.8685C48.5764 40.2605 50.3935 39.2313 51.9706 37.7793C53.5221 36.3482 54.6415 34.6288 55.2102 32.8108C55.2282 32.7525 55.2447 32.6942 55.2612 32.636C55.2837 32.5553 55.3318 32.4926 55.4038 32.4492C55.4743 32.4059 55.5523 32.394 55.6334 32.4104C55.7159 32.4268 55.7819 32.4687 55.8299 32.5374C55.8795 32.6046 55.899 32.6808 55.8885 32.763C55.3783 36.7844 53.3481 40.4413 50.1715 43.0615C48.86 44.1415 47.415 45.002 45.838 45.6384C44.2594 46.2748 42.6223 46.6602 40.9253 46.7931ZM38.1763 15.2402C36.4402 15.3791 34.7731 15.7884 33.1721 16.4696C31.571 17.1508 30.12 18.068 28.819 19.2213C27.3005 20.5657 26.0926 22.1447 25.1968 23.9612C24.7406 24.8844 24.3835 25.8435 24.1224 26.8399C23.8613 27.8363 23.7053 28.8476 23.6497 29.8754C23.5957 30.9031 23.6452 31.9249 23.7983 32.9437C23.9514 33.961 24.2049 34.9529 24.5606 35.9194C25.2583 37.8121 26.2862 39.5047 27.6441 40.9985C28.3524 41.7813 29.1297 42.4864 29.9759 43.1138C30.8222 43.7427 31.7241 44.282 32.6769 44.7331C33.6312 45.1842 34.6201 45.5383 35.6434 45.7937C36.6683 46.0492 37.7066 46.203 38.7615 46.2538C42.7994 46.454 46.7218 45.1633 49.8038 42.6193C52.1927 40.6504 53.9093 38.0721 54.7811 35.1949C54.1569 36.2795 53.3406 37.2953 52.3592 38.202C50.7162 39.7138 48.8225 40.7864 46.6798 41.4183C44.6661 42.0113 42.5533 42.1323 40.5681 41.7693C38.3669 41.3675 36.3292 40.3965 34.512 38.8862C33.0175 37.6493 31.8246 36.1689 30.9348 34.4465C30.045 32.7361 29.5408 30.921 29.4223 28.997C29.3007 26.9967 29.6173 25.104 30.3631 23.3742C31.0413 21.7996 32.0617 20.3865 33.3941 19.1735C34.9292 17.7752 36.8348 16.6952 38.9026 16.0484C39.9889 15.7063 41.0993 15.4956 42.2352 15.4194C40.8892 15.1924 39.5358 15.1326 38.1763 15.2402Z" fill="white"/>
</svg>
