<svg width="35" height="35" viewBox="0 0 35 35" fill="none" xmlns="http://www.w3.org/2000/svg">
<path d="M27.7083 0H7.29167C3.26521 0 0 3.26521 0 7.29167V27.7083C0 31.7348 3.26521 35 7.29167 35H27.7083C31.7363 35 35 31.7348 35 27.7083V7.29167C35 3.26521 31.7363 0 27.7083 0ZM27.5056 13.4706C27.8104 20.2038 22.7894 27.7113 13.8994 27.7113C11.1956 27.7113 8.68 26.9194 6.56104 25.5602C9.10146 25.8592 11.636 25.1548 13.6485 23.5783C11.5529 23.539 9.78542 22.155 9.17729 20.2533C9.92833 20.3962 10.6663 20.354 11.3385 20.1717C9.03583 19.7094 7.44771 17.6356 7.49875 15.4175C8.14333 15.7762 8.88271 15.9921 9.66583 16.0169C7.53521 14.5921 6.93146 11.7775 8.18417 9.625C10.5452 12.5212 14.0729 14.4273 18.0513 14.6271C17.3527 11.6331 19.6262 8.75 22.7165 8.75C24.0917 8.75 25.3371 9.33042 26.2092 10.2623C27.3 10.0479 28.3252 9.64979 29.2513 9.10146C28.8925 10.22 28.1342 11.1577 27.1469 11.7498C28.1152 11.6331 29.0383 11.3765 29.8958 10.9958C29.2556 11.9525 28.4433 12.7954 27.5056 13.4706Z" fill="#FFFFFF"/>
</svg>
