<svg width="35" height="35" viewBox="0 0 35 35" fill="none" xmlns="http://www.w3.org/2000/svg">
<path d="M14.5833 13.6106L22.3606 17.4927L14.5833 21.3894V13.6106ZM35 7.29167V27.7083C35 31.7348 31.7363 35 27.7083 35H7.29167C3.26521 35 0 31.7348 0 27.7083V7.29167C0 3.26521 3.26521 0 7.29167 0H27.7083C31.7363 0 35 3.26521 35 7.29167ZM29.1667 17.5C29.1375 11.4873 28.6956 9.1875 24.904 8.92938C21.3996 8.69021 13.596 8.69167 10.0975 8.92938C6.30875 9.1875 5.8625 11.4771 5.83333 17.5C5.8625 23.5127 6.30438 25.8125 10.096 26.0706C13.5946 26.3083 21.3981 26.3098 24.9025 26.0706C28.6913 25.8125 29.1375 23.5229 29.1667 17.5Z" fill="#FFFFFF"/>
</svg>
